<svg xmlns="http://www.w3.org/2000/svg" xmlns:xlink="http://www.w3.org/1999/xlink" fill="none" version="1.1" width="192" height="192" viewBox="0 0 192 192"><defs><clipPath id="master_svg0_88_01468"><rect x="16.657533645629883" y="57.863014221191406" width="158.6849365234375" height="76.27397155761719" rx="0"/></clipPath></defs><g><g><ellipse cx="96" cy="96" rx="96" ry="96" fill="#FFFFFF" fill-opacity="1"/></g><g clip-path="url(#master_svg0_88_01468)"><g><g><g><g><g><path d="M84.5313620904541,73.01125859619141C84.0817620904541,73.3974585961914,83.4035520904541,73.17345859619141,83.2587720904541,72.6018885961914C82.8853820904541,71.14206859619141,81.6432720904541,69.9989185961914,80.8050380904541,68.7399185961914C80.4240230904541,68.16834859619141,80.53832869045411,67.8284885961914,81.1098500904541,67.4731885961914C83.5254820904541,65.96701859619141,86.1621020904541,65.61171759619141,88.9282720904541,65.8666075961914C91.1686020904541,66.07515459619141,93.0737020904541,67.07926859619141,94.8569020904541,68.4155085961914C96.3123020904541,69.50458859619141,96.4038020904541,69.56637859619141,97.7297020904541,68.3846185961914C103.6811020904541,63.070538596191405,114.96680209045411,65.8666075961914,117.1462020904541,75.54470859619141C117.5120020904541,77.18214859619141,117.65680209045411,78.8428485961914,117.6949020904541,80.51124859619141C117.7634020904541,83.3613485961914,117.8168020904541,86.2114485961914,117.6034020904541,89.0616485961914C117.5272020904541,90.05804859619141,117.3977020904541,90.18934859619141,116.39180209045409,90.1584485961914C115.5155020904541,90.1352485961914,114.7915020904541,89.71814859619141,114.12860209045411,89.17744859619141C112.3607020904541,87.7331485961914,111.5682020904541,85.77124859619141,111.3776020904541,83.5467485961914C111.21760209045411,81.65434859619141,111.2100020904541,79.7465485961914,111.0576020904541,77.85414859619141C110.7375020904541,73.86861859619141,107.3236020904541,71.31198859619141,103.6126020904541,72.2388585961914C101.2960020904541,72.81815859619141,99.8939020904541,74.6178385961914,99.8100020904541,77.16674859619141C99.6957020904541,80.73524859619141,99.8100020904541,84.31134859619141,99.8177020904541,87.87984859619141C99.8177020904541,88.3201485961914,99.8177020904541,88.7526485961914,99.8177020904541,89.1929485961914C99.8100020904541,90.3206485961914,99.7567020904541,90.3592485961914,98.6670020904541,90.22794859619141C96.16750209045411,89.9267485961914,94.4835020904541,88.1579485961914,94.0110020904541,85.38504859619141C93.67570209045411,83.39994859619141,93.7290020904541,81.3917485961914,93.5690020904541,79.3989485961914C93.4547020904541,77.9623485961914,93.2261020904541,76.5642485961914,92.6546020904541,75.2203085961914C91.5192020904541,72.5632685961914,86.8936520904541,71.0339285961914,84.5618420904541,72.98035859619141C84.5466020904541,72.99580859619141,84.5313620904541,73.0035285961914,84.5237420904541,73.0189785961914L84.5313620904541,73.01125859619141Z" fill="#000000" fill-opacity="1" style="mix-blend-mode:passthrough"/></g><g><ellipse cx="77.23890900611877" cy="60.89852547645569" rx="2.994774103164673" ry="3.0355112552642822" fill="#DB2729" fill-opacity="1" style="mix-blend-mode:passthrough"/></g><g><path d="M80.3705574420166,80.7174642211914C80.4543874420166,84.4480642211914,80.3705574420166,87.2982642211914,80.3324574420166,90.1483642211914C80.3324574420166,90.7585642211914,80.0962274420166,90.8744642211914,79.57042744201661,90.8744642211914C77.2157574420166,90.8435642211914,75.6078774420166,89.4223642211914,74.9982534420166,86.8347642211914C74.5486584420166,84.94246422119141,74.50293304201661,83.0191642211914,74.4800730420166,81.0958642211914C74.4267312420166,76.2375642211914,74.3505295420166,71.3869042211914,74.4953111420166,66.52854522119141C74.5105491420166,65.9029055211914,74.6629584420166,65.7561509211914,75.2802004420166,65.86428642119141C78.3511774420166,66.3895152211914,79.8904774420166,68.1969142211914,80.1724274420166,71.5800042211914C80.4467574420166,74.91675422119141,80.2486274420166,78.26126422119141,80.3705574420166,80.7174642211914Z" fill="#DB2729" fill-opacity="1" style="mix-blend-mode:passthrough"/></g></g><g><g><g><path d="M16.657533645629883,107.38760979614258L16.657533645629883,91.19050979614258L18.943623645629884,91.19050979614258L18.943623645629884,107.38760979614258L16.657533645629883,107.38760979614258Z" fill="#DB2729" fill-opacity="1" style="mix-blend-mode:passthrough"/></g><g><path d="M34.892920559692385,100.33075167114258L34.892920559692385,107.39048167114258L32.69825055969238,107.39048167114258L32.69825055969238,100.58564167114258C32.69825055969238,99.39615167114258,32.41630055969238,98.50018167114258,31.84478055969238,97.90543167114258C31.273260559692382,97.30296167114258,30.473130559692382,97.00173167114258,29.436770559692384,97.00173167114258C28.659500559692383,97.00173167114258,27.981290559692383,97.15621167114257,27.402150559692384,97.46517167114258C26.82301055969238,97.77412167114258,26.381030559692384,98.22984167114258,26.06860055969238,98.83231167114258C25.756170559692382,99.43477167114258,25.603760559692383,100.18400167114258,25.603760559692383,101.07997167114257L25.603760559692383,107.39818167114258L23.409120559692383,107.39818167114258L23.409120559692383,95.13253867114258L25.512320559692384,95.13253867114258L25.512320559692384,96.98629167114258C25.885710559692384,96.45333167114258,26.381030559692384,96.02079167114258,26.998280559692382,95.68866467114258C27.821270559692383,95.24067367114257,28.781420559692382,95.01668167114258,29.871130559692382,95.01668167114258C30.86176055969238,95.01668167114258,31.73048055969238,95.20978067114258,32.48489055969238,95.59597767114258C33.239290559692385,95.98217467114257,33.82602055969238,96.56919167114258,34.25282055969238,97.35703167114258C34.679520559692385,98.14488167114258,34.892920559692385,99.14127167114258,34.892920559692385,100.33848167114257L34.892920559692385,100.33075167114258Z" fill="#DB2729" fill-opacity="1" style="mix-blend-mode:passthrough"/></g><g><path d="M42.429392864379885,107.52741604614258C41.42351286437988,107.52741604614258,40.470982864379884,107.38841604614258,39.56416286437988,107.11031604614257C38.65735286437988,106.83231604614258,37.948661864379886,106.49241604614258,37.43048286437988,106.09081604614258L38.34491786437988,104.32972604614258C38.86310286437988,104.68502604614258,39.50320286437988,104.98625604614259,40.26523286437988,105.23341604614258C41.027262864379885,105.48061604614257,41.80453286437988,105.60421604614258,42.59704286437988,105.60421604614258C43.61816286437988,105.60421604614258,44.349702864379886,105.45741604614258,44.79930286437988,105.16391604614257C45.248902864379886,104.87039604614257,45.46989286437989,104.46102604614258,45.46989286437989,103.93579604614257C45.46989286437989,103.54960604614257,45.33272286437988,103.24836604614258,45.05839286437988,103.03209604614258C44.784062864379884,102.81582604614258,44.42591286437988,102.65362604614258,43.976312864379885,102.54548604614257C43.52671286437988,102.43735604614258,43.03139286437988,102.34466604614258,42.482732864379884,102.25970604614258C41.934072864379885,102.17473604614258,41.38541286437988,102.06660604614258,40.83675286437988,101.93529604614258C40.288092864379884,101.80399604614257,39.78515286437988,101.61861604614258,39.327942864379885,101.37917604614258C38.870722864379886,101.13973604614257,38.504942864379885,100.80760604614258,38.230615864379885,100.38278604614258C37.95628486437988,99.95796604614257,37.81911886437988,99.39412604614257,37.81911886437988,98.68351604614257C37.81911886437988,97.97291604614257,38.024867864379885,97.29320604614257,38.43636286437988,96.73708604614258C38.84785286437988,96.18095604614258,39.42700286437988,95.75614004614258,40.18141286437988,95.45490604614258C40.93582286437988,95.15367304614257,41.82739286437988,95.00691604614258,42.86375286437988,95.00691604614258C43.65626286437988,95.00691604614258,44.45639286437988,95.09960254614258,45.27176286437988,95.29270104614258C46.08713286437988,95.48580004614257,46.75010286437988,95.75613704614258,47.268282864379884,96.11143604614257L46.330982864379884,97.87249604614257C45.78232286437988,97.50174604614257,45.210802864379886,97.24685604614258,44.616422864379885,97.10782604614258C44.02203286437988,96.96879604614257,43.42765286437988,96.89927604614257,42.833272864379886,96.89927604614257C41.873112864379884,96.89927604614257,41.156802864379884,97.05375604614258,40.68435286437988,97.37044604614258C40.211892864379884,97.68712604614258,39.975662864379885,98.08876604614258,39.975662864379885,98.58310604614257C39.975662864379885,99.00019604614258,40.11282286437988,99.31687604614258,40.39477286437988,99.54087604614259C40.676732864379886,99.76486604614257,41.042502864379884,99.93479604614258,41.49210286437988,100.05837604614258C41.94169286437988,100.18195604614257,42.43701286437988,100.28236604614258,42.98567286437988,100.36733604614258C43.534332864379884,100.45229604614258,44.08299286437988,100.56043604614258,44.63165286437988,100.69173604614258C45.18032286437988,100.82304604614258,45.675632864379885,101.00069604614258,46.12523286437988,101.23241604614257C46.574832864379886,101.46413604614258,46.94060286437988,101.78853604614258,47.222552864379885,102.20563604614257C47.50448286437988,102.62272604614257,47.64168286437988,103.17884604614258,47.64168286437988,103.87400604614258C47.64168286437988,104.61550604614257,47.42830286437989,105.25661604614258,47.001562864379885,105.79731604614258C46.57482286437988,106.33791604614258,45.97282286437988,106.75501604614257,45.195552864379884,107.05631604614258C44.41828286437988,107.35751604614258,43.48861286437988,107.50421604614257,42.414152864379886,107.50421604614257L42.429392864379885,107.52741604614258Z" fill="#DB2729" fill-opacity="1" style="mix-blend-mode:passthrough"/></g><g><path d="M57.19739059875488,106.66996292114257C56.86209059875488,106.96346292114258,56.46584059875488,107.17976292114258,56.001000598754885,107.31876292114258C55.53616059875488,107.45786292114258,55.05608059875488,107.52736292114258,54.55314059875488,107.52736292114258C53.33390059875488,107.52736292114258,52.388980598754884,107.19516292114258,51.726020598754886,106.53096292114257C51.05543059875488,105.86666292114258,50.72014059875488,104.91666292114257,50.72014059875488,103.68856292114258L50.72014059875488,96.95324292114258L48.66266059875488,96.95324292114258L48.66266059875488,95.12267292114258L50.72014059875488,95.12267292114258L50.72014059875488,92.44246292114258L52.91478059875488,92.44246292114258L52.91478059875488,95.12267292114258L56.382020598754885,95.12267292114258L56.382020598754885,96.95324292114258L52.91478059875488,96.95324292114258L52.91478059875488,103.59586292114258C52.91478059875488,104.26006292114258,53.07481059875488,104.76986292114258,53.402480598754885,105.12516292114258C53.73015059875488,105.48046292114257,54.194990598754885,105.65816292114258,54.80462059875488,105.65816292114258C55.49044059875488,105.65816292114258,56.06196059875488,105.46506292114258,56.519180598754886,105.07886292114257L57.20501059875488,106.67766292114258L57.19739059875488,106.66996292114257Z" fill="#DB2729" fill-opacity="1" style="mix-blend-mode:passthrough"/></g><g><path d="M68.08695067687988,96.23502604614258C67.18776067687989,95.41628404614258,65.90755067687988,95.00691604614258,64.25395067687988,95.00691604614258C63.29379067687988,95.00691604614258,62.379360676879884,95.13822204614257,61.503020676879885,95.40856204614258C60.62669067687988,95.67889904614258,59.87989867687988,96.06509604614257,59.255035676879885,96.57487604614258L60.16947067687988,98.24324604614257C60.64193067687988,97.84160604614257,61.22107067687988,97.52492604614258,61.906900676879886,97.28547604614258C62.592720676879885,97.04603604614258,63.29379067687988,96.93017604614258,64.01009067687988,96.93017604614258C65.09217067687989,96.93017604614258,65.89993067687988,97.18506604614258,66.44097067687989,97.70257604614258C66.98201067687988,98.22007604614258,67.24872067687988,98.94612604614258,67.24872067687988,99.88844604614258L67.24872067687988,100.32871604614257L63.78148067687988,100.32871604614257C62.57748067687988,100.32871604614257,61.62494067687988,100.49091604614257,60.91626067687988,100.81532604614257C60.20757067687988,101.13972604614258,59.697010676879884,101.57226604614257,59.38457867687988,102.11294604614258C59.07214667687988,102.65362604614258,58.91974067687988,103.25608604614257,58.91974067687988,103.92034604614258C58.91974067687988,104.58460604614258,59.10262867687988,105.23341604614258,59.46840267687988,105.78181604614258C59.834176676879885,106.33021604614258,60.35236067687988,106.75501604614257,61.03056067687988,107.06401604614258C61.70877067687988,107.37291604614258,62.493660676879884,107.52741604614258,63.39285067687988,107.52741604614258C64.50541067687988,107.52741604614258,65.42747067687988,107.31891604614258,66.15140067687989,106.89411604614259C66.66196067687989,106.60051604614257,67.06583067687988,106.22981604614257,67.36302067687988,105.78181604614258L67.36302067687988,107.38841604614258L69.44334067687988,107.38841604614258L69.44334067687988,99.98113604614258C69.44334067687988,98.29731604614258,68.99374067687988,97.05375604614258,68.09457067687988,96.23501604614258L68.08695067687988,96.23502604614258ZM67.24110067687988,103.63456604614258C66.96677067687989,104.34516604614258,66.52479067687989,104.88584604614258,65.90755067687988,105.25661604614258C65.29030067687988,105.62731604614258,64.57400067687988,105.81271604614258,63.75100067687988,105.81271604614258C62.928010676879886,105.81271604614258,62.257430676879885,105.63501604614258,61.78497067687988,105.27201604614258C61.31251067687988,104.90901604614258,61.07628067687988,104.43012604614258,61.07628067687988,103.82766604614258C61.07628067687988,103.30243604614257,61.266790676879886,102.85444604614258,61.64780067687988,102.48369604614258C62.02882067687988,102.11294604614258,62.76799067687988,101.92756604614257,63.865310676879886,101.92756604614257L67.24109067687988,101.92756604614257L67.24109067687988,103.64228604614257L67.24110067687988,103.63456604614258Z" fill="#DB2729" fill-opacity="1" style="mix-blend-mode:passthrough"/></g><g><path d="M84.97348696594239,100.33075167114258L84.97348696594239,107.39048167114258L82.77881696594238,107.39048167114258L82.77881696594238,100.58564167114258C82.77881696594238,99.39615167114258,82.49686696594239,98.50018167114258,81.92534696594238,97.90543167114258C81.35382696594239,97.30296167114258,80.55369696594238,97.00173167114258,79.51733696594238,97.00173167114258C78.74006696594239,97.00173167114258,78.06185696594238,97.15621167114257,77.48271696594239,97.46517167114258C76.90357696594238,97.77412167114258,76.46159696594238,98.22984167114258,76.14916696594238,98.83231167114258C75.83673696594238,99.43477167114258,75.68432696594239,100.18400167114258,75.68432696594239,101.07997167114257L75.68432696594239,107.39818167114258L73.48968696594238,107.39818167114258L73.48968696594238,95.13253867114258L75.59288696594238,95.13253867114258L75.59288696594238,96.98629167114258C75.96627696594238,96.45333167114258,76.46159696594238,96.02079167114258,77.07884696594239,95.68866467114258C77.90183696594238,95.24067367114257,78.86198696594238,95.01668167114258,79.95169696594239,95.01668167114258C80.94232696594239,95.01668167114258,81.81104696594238,95.20978067114258,82.56545696594239,95.59597767114258C83.31985696594238,95.98217467114257,83.90658696594238,96.56919167114258,84.33338696594238,97.35703167114258C84.76008696594238,98.14488167114258,84.97348696594239,99.14127167114258,84.97348696594239,100.33848167114257L84.97348696594239,100.33075167114258Z" fill="#DB2729" fill-opacity="1" style="mix-blend-mode:passthrough"/></g><g><path d="M95.83996872375488,106.66996292114257C95.50466872375489,106.96346292114258,95.10841872375488,107.17976292114258,94.64357872375489,107.31876292114258C94.17873872375489,107.45786292114258,93.69865872375489,107.52736292114258,93.19571872375488,107.52736292114258C91.97647872375488,107.52736292114258,91.03155872375488,107.19516292114258,90.36859872375489,106.53096292114257C89.69800872375488,105.86666292114258,89.36271872375488,104.91666292114257,89.36271872375488,103.68856292114258L89.36271872375488,96.95324292114258L87.30523872375488,96.95324292114258L87.30523872375488,95.12267292114258L89.36271872375488,95.12267292114258L89.36271872375488,92.44246292114258L91.55735872375489,92.44246292114258L91.55735872375489,95.12267292114258L95.02459872375488,95.12267292114258L95.02459872375488,96.95324292114258L91.55735872375489,96.95324292114258L91.55735872375489,103.59586292114258C91.55735872375489,104.26006292114258,91.71738872375488,104.76986292114258,92.04505872375488,105.12516292114258C92.37272872375489,105.48046292114257,92.83756872375488,105.65816292114258,93.44719872375488,105.65816292114258C94.13301872375489,105.65816292114258,94.70453872375488,105.46506292114258,95.16175872375489,105.07886292114257L95.84758872375488,106.67766292114258L95.83996872375488,106.66996292114257Z" fill="#DB2729" fill-opacity="1" style="mix-blend-mode:passthrough"/></g><g><path d="M121.95497407531738,107.38760979614258L119.76027407531738,107.38760979614258L119.73747407531738,95.57770979614259L113.96128407531738,105.41800979614257L112.91729407531739,105.41800979614257L107.14111407531739,95.64721979614258L107.14111407531739,107.38760979614258L104.94647407531738,107.38760979614258L104.94647407531738,91.19050979614258L106.82106407531738,91.19050979614258L113.48119407531738,102.56790979614257L120.05747407531739,91.19050979614258L121.93207407531739,91.19050979614258L121.95497407531738,107.38760979614258Z" fill="#000000" fill-opacity="1" style="mix-blend-mode:passthrough"/></g><g><path d="M137.6981490753174,95.12215042114258L137.6981490753174,107.38775042114258L135.6178490753174,107.38775042114258L135.6178490753174,105.54945042114258C135.2444490753174,106.09015042114258,134.77198907531738,106.52265042114257,134.17760907531738,106.85485042114257C133.3851090753174,107.30285042114258,132.49351907531738,107.52685042114258,131.51050907531737,107.52685042114258C130.5274990753174,107.52685042114258,129.5673290753174,107.33375042114258,128.78243907531737,106.94755042114258C127.99755907531738,106.56135042114258,127.38792907531739,105.97425042114259,126.95357807531738,105.17875042114258C126.51921607531739,104.38316042114258,126.30584907531738,103.38677042114259,126.30584907531738,102.18184042114258L126.30584907531738,95.12215042114258L128.50049907531738,95.12215042114258L128.50049907531738,101.92695042114258C128.50049907531738,103.13188042114258,128.78243907531737,104.03558042114258,129.3539690753174,104.63033042114257C129.9254890753174,105.23275042114258,130.72561907531738,105.53405042114258,131.76197907531738,105.53405042114258C132.5240090753174,105.53405042114258,133.1869690753174,105.37955042114258,133.75087907531739,105.06287042114258C134.31477907531738,104.74619042114259,134.74912907531737,104.28275042114258,135.05394907531738,103.67256042114258C135.35875907531738,103.06237042114257,135.51116907531738,102.32859042114258,135.51116907531738,101.46351042114257L135.51116907531738,95.12215042114258L137.7058490753174,95.12215042114258L137.6981490753174,95.12215042114258Z" fill="#000000" fill-opacity="1" style="mix-blend-mode:passthrough"/></g><g><path d="M151.10248169250488,90.21785649259257L151.10248169250488,96.98403354614258C150.69102169250488,96.45108354614258,150.2033216925049,96.01854354614258,149.6394116925049,95.70186354614258C148.8164216925049,95.23842354614258,147.89437169250488,95.00670354614257,146.88087169250488,95.00670354614257C145.7073516925049,95.00670354614257,144.66337169250488,95.26931354614258,143.74132169250487,95.79454354614258C142.81926169250488,96.31977354614259,142.09533169250489,97.04582354614257,141.56191469250487,97.98042354614257C141.0284966925049,98.91502354614258,140.76178169250488,100.00409354614257,140.76178169250488,101.25535354614257C140.76178169250488,102.50665354614257,141.0284966925049,103.60345354614257,141.56191469250487,104.53805354614258C142.09533169250489,105.48035354614258,142.81926169250488,106.21415354614258,143.74132169250487,106.73935354614258C144.66338169250488,107.26465354614258,145.7073516925049,107.52725354614257,146.88087169250488,107.52725354614257C147.9324816925049,107.52725354614257,148.86977169250488,107.29545354614258,149.68513169250488,106.82435354614258C150.27190169250488,106.48445354614257,150.7747816925049,106.02875354614258,151.19398169250488,105.45715354614258L151.19398169250488,107.38815354614258L153.2971816925049,107.38815354614258L153.2971816925049,90.21785354614258L151.10248169250488,90.21785649259257ZM150.5843316925049,103.53395354614258C150.2261816925049,104.19045354614258,149.73848169250488,104.69255354614258,149.1212416925049,105.04785354614258C148.5040016925049,105.40315354614258,147.81817169250488,105.58075354614257,147.0561416925049,105.58075354614257C146.29411169250488,105.58075354614257,145.58543169250487,105.40315354614258,144.9758016925049,105.04785354614258C144.36617169250488,104.69255354614258,143.8784816925049,104.19045354614258,143.5127116925049,103.53395354614258C143.1469316925049,102.87745354614258,142.96404169250488,102.12045354614258,142.96404169250488,101.25535354614257C142.96404169250488,100.39025354614257,143.1469316925049,99.61790354614257,143.5127116925049,98.97681354614258C143.8784816925049,98.33572354614257,144.36617169250488,97.84139354614258,144.9758016925049,97.48609354614258C145.58543169250487,97.13079354614258,146.27887169250488,96.95314354614258,147.0561416925049,96.95314354614258C147.83340169250488,96.95314354614258,148.50399169250488,97.13079354614258,149.1212416925049,97.48609354614258C149.73848169250488,97.84139354614258,150.2261816925049,98.33572354614257,150.5843316925049,98.97681354614258C150.94248169250488,99.61790354614257,151.11778169250488,100.37485354614257,151.11778169250488,101.25535354614257C151.11778169250488,102.13595354614257,150.9348816925049,102.87745354614258,150.5843316925049,103.53395354614258Z" fill="#000000" fill-opacity="1" style="mix-blend-mode:passthrough"/></g><g><path d="M163.9500020440674,95.00691604614258L163.9500020440674,97.16189604614257C163.85856204406738,97.14644604614257,163.76711204406737,97.13872604614258,163.69091204406737,97.13872604614258L163.4546820440674,97.13872604614258C162.28116204406737,97.13872604614258,161.35149204406738,97.49402604614258,160.67328204406738,98.20463604614258C159.98746204406737,98.91523604614258,159.64454204406738,99.94251604614257,159.64454204406738,101.27876604614258L159.64454204406738,107.38841604614258L157.44989204406738,107.38841604614258L157.44989204406738,95.12277604614258L159.55309204406737,95.12277604614258L159.55309204406737,97.17734604614257C159.8960020440674,96.54398604614258,160.39132204406738,96.04192604614258,161.03904204406737,95.67890104614258C161.8315520440674,95.23091104614258,162.80695204406737,95.00691899259257,163.9576120440674,95.00691899259257L163.9500020440674,95.00691604614258Z" fill="#000000" fill-opacity="1" style="mix-blend-mode:passthrough"/></g><g><path d="M173.9935668878174,96.23502604614258C173.0943768878174,95.41628404614258,171.81415688781738,95.00691604614258,170.1605568878174,95.00691604614258C169.2004068878174,95.00691604614258,168.28596688781738,95.13822204614257,167.40963688781738,95.40856204614258C166.5333068878174,95.67889904614258,165.78650888781738,96.06509604614257,165.16165188781738,96.57487604614258L166.07608688781738,98.24324604614257C166.5485368878174,97.84160604614257,167.1276868878174,97.52492604614258,167.8135068878174,97.28547604614258C168.49932688781738,97.04603604614258,169.2004068878174,96.93017604614258,169.91670688781738,96.93017604614258C170.99878688781737,96.93017604614258,171.80653688781737,97.18506604614258,172.34757688781738,97.70257604614258C172.8886268878174,98.22007604614258,173.15532688781738,98.94612604614258,173.15532688781738,99.88844604614258L173.15532688781738,100.32871604614257L169.68809688781738,100.32871604614257C168.48408688781737,100.32871604614257,167.53154688781737,100.49091604614257,166.82286688781738,100.81532604614257C166.1141868878174,101.13972604614258,165.6036178878174,101.57226604614257,165.29119488781737,102.11294604614258C164.97875988781738,102.65362604614258,164.82635688781738,103.25608604614257,164.82635688781738,103.92034604614258C164.82635688781738,104.58460604614258,165.0092478878174,105.23341604614258,165.3750188878174,105.78181604614258C165.74078988781739,106.33021604614258,166.25897688781737,106.75501604614257,166.93717688781737,107.06401604614258C167.61538688781738,107.37291604614258,168.40027688781737,107.52741604614258,169.29947688781738,107.52741604614258C170.41204688781738,107.52741604614258,171.3340868878174,107.31891604614258,172.0580168878174,106.89411604614259C172.5685768878174,106.60051604614257,172.97244688781737,106.22981604614257,173.26963688781737,105.78181604614258L173.26963688781737,107.39611604614258L175.34995688781737,107.39611604614258L175.34995688781737,99.98885604614257C175.34995688781737,98.30503604614258,174.9003568878174,97.06148604614258,174.0011768878174,96.24274604614257L173.9935668878174,96.23502604614258ZM171.81415688781738,105.25661604614258C171.1969168878174,105.62731604614258,170.48060688781737,105.81271604614258,169.65761688781737,105.81271604614258C168.8346268878174,105.81271604614258,168.1640368878174,105.63511604614257,167.69158688781738,105.27201604614258C167.2191268878174,104.90901604614258,166.9828968878174,104.43012604614258,166.9828968878174,103.82766604614258C166.9828968878174,103.30243604614257,167.17340688781738,102.85444604614258,167.55442688781739,102.48369604614258C167.9354368878174,102.11294604614258,168.6746068878174,101.92757604614258,169.7719268878174,101.92757604614258L173.14771688781738,101.92757604614258L173.14771688781738,103.64228604614257C172.8733768878174,104.35288604614257,172.4314068878174,104.89356604614258,171.81415688781738,105.26431604614258L171.81415688781738,105.25661604614258Z" fill="#000000" fill-opacity="1" style="mix-blend-mode:passthrough"/></g></g><g><g><path d="M67.68302357177734,115.09750325830078L44.77642357177734,115.09750325830078L45.30984357177734,116.10934225830079L47.474003571777345,116.10934225830079L47.474003571777345,119.02899225830078C47.37493357177735,119.16029225830079,47.15395357177734,119.29932225830078,46.80341357177734,119.44608225830078C46.45288357177734,119.59284225830078,46.17093357177734,119.66235225830079,45.97280357177734,119.66235225830079C45.27174357177734,119.66235225830079,44.51733357177734,119.34567225830078,43.71720357177735,118.72003225830078C43.953433571777346,118.61189225830078,44.15155357177734,118.42652225830078,44.319203571777344,118.17935225830078C44.47922357177735,117.92446225830078,44.563053571777345,117.66957225830078,44.563053571777345,117.41469225830078C44.563053571777345,116.88173225830079,44.29634357177734,116.36423225830079,43.75530357177735,115.85445225830078C43.12281357177734,115.25198525830078,42.497953571777344,114.95075225830078,41.88071357177734,114.95075225830078C41.370153571777344,114.95075225830078,40.70718357177734,115.15929625830078,39.899433571777344,115.58411525830078C40.00611657177734,115.86217825830079,40.12804357177735,116.11707225830078,40.257583571777346,116.34878225830079C40.341413571777345,116.49554225830079,40.43285357177734,116.56505225830078,40.52429357177734,116.56505225830078C40.50905357177734,116.56505225830078,40.752903571777345,116.42602225830078,41.25584357177734,116.15568225830079C41.75878357177734,115.88534925830078,42.17790357177734,115.74631825830078,42.52843357177734,115.74631825830078C43.24474357177734,115.74631825830078,43.602893571777344,116.12479225830079,43.602893571777344,116.86629225830077C43.602893571777344,117.24476225830078,43.465723571777346,117.57689225830079,43.19139357177734,117.87812225830078C42.978033571777345,118.11756225830078,42.78752357177734,118.24115225830079,42.61987357177735,118.24115225830079C42.536053571777344,118.24115225830079,42.299823571777345,118.27204225830079,41.91881357177734,118.32611225830078C41.53779357177734,118.38018225830078,41.30156357177734,118.41107225830078,41.20250357177734,118.41107225830078C40.99675357177735,118.41107225830078,40.897693571777346,118.51148225830079,40.897693571777346,118.72003225830078C40.897693571777346,118.78955225830079,41.011993571777346,118.95947225830078,41.24060357177734,119.22209225830078C41.469213571777345,119.48470225830079,41.62162357177734,119.60829225830078,41.705443571777344,119.60829225830078C41.81212357177734,119.60829225830078,42.32268357177735,119.43064225830078,43.24474357177734,119.06762225830079C43.87722357177734,119.26071225830079,44.189663571777345,119.70098225830078,44.189663571777345,120.38841225830078C44.189663571777345,120.85957225830079,44.029633571777346,121.27666225830077,43.709583571777344,121.63196225830077C43.38953357177734,121.98727225830078,42.97041357177734,122.16492225830078,42.459853571777344,122.16492225830078C41.30156357177734,122.16492225830078,40.31855357177734,121.24577225830078,39.51080157177734,119.40747225830079L39.030723571777344,119.70098225830078C40.08994357177735,122.01816225830078,41.332053571777344,123.18448225830078,42.74942357177734,123.18448225830078C43.45049357177734,123.18448225830078,44.029633571777346,122.99138225830077,44.486853571777345,122.59746225830078C44.936443571777346,122.20354225830079,45.16505357177734,121.67831225830078,45.16505357177734,121.01405225830078C45.16505357177734,120.67419225830078,45.073613571777344,120.36524225830078,44.898343571777346,120.08718225830079L44.936443571777346,120.04855225830079C45.408903571777344,120.39613225830078,45.87374357177735,120.57378225830078,46.346203571777345,120.57378225830078C46.81865357177735,120.57378225830078,47.18443357177735,120.50427225830079,47.489243571777344,120.37296225830079L47.489243571777344,123.92597225830079L48.563703571777346,124.55934225830077L48.563703571777346,116.10934225830079L51.032723571777346,116.10934225830079L51.032723571777346,119.00582225830078C51.032723571777346,119.53877225830078,51.36032357177734,120.07172225830078,52.00812357177735,120.59695225830077C52.61012357177734,121.08355225830078,53.120623571777344,121.32300225830078,53.547423571777344,121.32300225830078C54.042723571777344,121.32300225830078,54.53042357177735,121.19169225830078,55.018123571777345,120.92136225830077L55.018123571777345,123.91053225830078L56.09252357177735,124.54389225830079L56.09252357177735,116.09389225830078L62.478323571777345,116.09389225830078L62.478323571777345,118.48831225830078L59.18642357177734,118.48831225830078C58.70632357177735,118.48831225830078,58.38622357177734,118.52694225830078,58.21862357177734,118.60417225830078C58.050923571777346,118.68141225830078,57.96712357177734,118.82044225830079,57.96712357177734,119.01354225830079C57.96712357177734,119.16802225830078,58.16522357177735,119.54650225830078,58.55392357177735,120.13351225830078C58.95012357177734,120.72825225830078,59.22452357177734,121.02177225830079,59.37692357177734,121.02177225830079C59.590223571777344,121.02177225830079,59.69692357177735,120.89818225830078,59.69692357177735,120.64329225830078L59.69692357177735,119.68553225830078C59.69692357177735,119.56194225830077,59.826523571777344,119.50787225830078,60.093223571777344,119.50787225830078L62.47072357177734,119.50787225830078L62.47072357177734,123.91052225830079L63.52232357177734,124.54388225830078L63.52232357177734,116.09388225830078L65.77792357177734,116.09388225830078L65.77792357177734,123.90280225830078L66.86762357177734,124.53616225830078L66.86762357177734,116.08616225830077L68.22402357177734,116.08616225830077L67.69062357177734,115.07432625830079L67.68302357177734,115.09750325830078ZM55.010423571777345,119.68553225830078C54.20272357177734,120.17986225830079,53.547423571777344,120.42703225830078,53.044423571777344,120.42703225830078C52.41192357177734,120.42703225830078,52.09952357177734,119.97132225830079,52.09952357177734,119.05216225830078L52.09952357177734,116.11706225830078L55.018123571777345,116.11706225830078L55.018123571777345,119.68553225830078L55.010423571777345,119.68553225830078Z" fill="#DB2729" fill-opacity="1" style="mix-blend-mode:passthrough"/></g><g><path d="M93.43198021240235,115.09679033330079L71.85128021240234,115.09679033330079L72.38469821240234,116.10862413330078L74.04592021240235,116.10862413330078L74.04592021240235,119.00510413330078C74.04592021240235,119.53806413330078,74.37359021240235,120.07100413330078,75.02132021240234,120.59623413330078C75.62332021240235,121.08284413330078,76.14150021240235,121.32228413330078,76.56061021240234,121.32228413330078C77.05593021240234,121.32228413330078,77.54363021240235,121.19098413330079,78.03133021240234,120.92064413330078L78.03133021240234,123.90981413330078L79.10579021240234,124.54318413330078L79.10579021240234,116.09318413330078L83.57888021240234,116.09318413330078C83.62458021240235,116.54889413330078,83.64748021240234,116.91191413330078,83.64748021240234,117.18226413330078C83.64748021240234,118.69615413330078,83.57128021240234,119.44537413330079,83.41888021240234,119.44537413330079C83.35028021240234,119.44537413330079,83.15978021240234,119.36041413330078,82.84738021240234,119.18276413330078C82.53488021240234,119.00511413330078,82.35968021240234,118.92015413330078,82.31398021240234,118.92015413330078C82.19198021240234,118.92015413330078,82.08528021240234,118.98966413330078,81.97098021240234,119.12097413330078C81.86438021240234,119.25228413330078,81.81100021240235,119.39131413330078,81.81100021240235,119.53807413330078C81.81100021240235,119.83158413330078,82.09298021240234,120.32591413330078,82.64918021240234,121.02106413330078C83.09118021240235,121.59263413330078,84.09708021240235,122.75895413330078,85.67448021240234,124.53546413330078L86.17738021240234,124.02568413330079C84.29518021240234,122.05607413330078,83.35028021240234,121.05196413330079,83.35028021240234,121.01334413330078C83.35028021240234,120.92065413330079,83.52558021240235,120.78162413330078,83.88368021240234,120.59624413330079C84.22658021240234,120.29501413330078,84.49338021240234,120.04012413330078,84.68388021240234,119.83158413330078C85.28588021240235,120.48038413330079,85.98688021240234,120.81251413330078,86.77948021240235,120.81251413330078C87.09948021240234,120.81251413330078,87.56428021240234,120.70438413330078,88.18158021240234,120.48811413330078L88.18158021240234,123.89437413330079L89.25598021240233,124.52773413330078L89.25598021240233,116.07773413330078L91.52688021240235,116.07773413330078L91.52688021240235,123.88664413330078L92.61658021240234,124.52000413330079L92.61658021240234,116.07001413330079L93.97298021240235,116.07001413330079L93.43958021240235,115.05817413330078L93.43198021240235,115.09679033330079ZM78.03896021240234,119.68481413330078C77.23121021240235,120.17914413330078,76.57586021240235,120.42631413330078,76.07292021240234,120.42631413330078C75.44044021240235,120.42631413330078,75.12801021240234,119.97060413330078,75.12801021240234,119.05145413330078L75.12801021240234,116.11635413330077L78.03896021240234,116.11635413330077L78.03896021240234,119.68481413330078ZM88.17398021240234,119.15958413330078C87.60238021240234,119.60757413330079,87.03088021240234,119.83157413330078,86.45938021240235,119.83157413330078C85.97168021240235,119.83157413330078,85.39258021240235,119.63074413330078,84.72198021240234,119.23683413330077L84.72198021240234,116.11635413330077L88.17398021240234,116.11635413330077L88.17398021240234,119.15958413330078Z" fill="#DB2729" fill-opacity="1" style="mix-blend-mode:passthrough"/></g><g><path d="M77.44437447021484,111.49028500830079C76.99478447021484,110.84147600830079,76.55280447021484,110.50934600830078,76.11844447021484,110.50934600830078C75.96604447021484,110.50934600830078,75.88983447021485,110.60203550830079,75.90508447021485,110.77968300830078C75.92031447021485,111.09636800830079,75.98128447021485,111.56752600830077,76.10320447021485,112.20861600830078C76.74331447021484,112.20861600830078,77.22339447021484,112.45577600830079,77.53582447021485,112.95010600830078C77.68822447021485,113.20500600830078,77.89397447021484,113.66071600830078,78.14544447021484,114.32497600830078C78.23689447021485,114.57986600830078,78.32833447021484,114.82702600830078,78.41215447021484,115.08963600830079L78.81603447021484,115.08963600830079C78.19878447021485,113.11231600830078,77.74156447021484,111.91509600830078,77.44437447021484,111.48255900830078L77.44437447021484,111.49028500830079ZM76.69759447021484,113.81519600830079Q76.22513447021484,113.44444600830079,75.31832447021485,112.69522600830078C74.75442447021484,112.23951600830078,74.27433747021485,112.00779600830079,73.87046347021484,112.00779600830079C73.67995617021484,112.00779600830079,73.58089447021484,112.07730600830078,73.58089447021484,112.20861600830078C73.58089447021484,112.27040600830078,73.65709617021484,112.50212600830078,73.80950547021484,112.89604600830079C73.98477447021484,113.32858600830077,74.13717847021485,113.66071600830078,74.25909947021485,113.87698600830078C74.57915047021484,113.69933600830078,74.84586447021485,113.60664600830079,75.04398447021484,113.60664600830079C75.16591447021484,113.60664600830079,75.39452447021485,113.72250600830078,75.73743447021485,113.95422600830078C76.41564447021484,114.40221600830078,76.96430447021484,114.78841600830079,77.39104447021484,115.11281600830078L77.97779447021485,115.11281600830078C77.61202447021485,114.68799600830079,77.17766447021485,114.26318600830078,76.68996447021485,113.82291600830078L76.69759447021484,113.81519600830079Z" fill="#DB2729" fill-opacity="1" style="mix-blend-mode:passthrough"/></g><g><path d="M128.77473040771486,115.09717663330078L126.56493040771484,115.09717663330078C125.68093040771484,113.93858663330079,124.90373040771485,112.91902663330077,124.22543040771484,112.05394663330078C123.61583040771484,111.35106163330079,123.02903040771484,111.00348663330078,122.45753040771484,111.00348663330078C121.88603040771484,111.00348663330078,121.58123040771484,111.08845053330079,121.58123040771484,111.25837863330078C121.58123040771484,111.32789063330078,121.68793040771484,111.57506263330077,121.90893040771485,111.99987663330079C122.12983040771485,112.42469663330078,122.27463040771485,112.67186663330078,122.34323040771484,112.74137663330077C122.91473040771484,112.57144663330078,123.21193040771485,112.48648663330079,123.23483040771484,112.48648663330079C123.57013040771484,112.48648663330079,123.90543040771485,112.66413663330079,124.25593040771484,113.01171663330078C124.86553040771484,113.62962663330079,125.44473040771484,114.32477663330079,126.00863040771485,115.09717663330078L104.45843040771484,115.09717663330078L104.99185040771485,116.10900663330078L107.15601040771485,116.10900663330078L107.15601040771485,119.02866663330079C107.05695040771485,119.15996663330078,106.83596040771485,119.29899663330079,106.48542040771484,119.44575663330079C106.13489040771485,119.59251663330078,105.85294040771484,119.66202663330078,105.65482040771485,119.66202663330078C104.95375040771485,119.66202663330078,104.19934040771484,119.34533663330078,103.39921040771485,118.71970663330077C103.63544040771484,118.61156663330078,103.83357040771484,118.42619663330078,104.00121040771484,118.17902663330078C104.16124040771484,117.92413663330078,104.24506040771485,117.66924663330079,104.24506040771485,117.41435663330078C104.24506040771485,116.88140663330078,103.97835040771484,116.36389663330078,103.43731040771485,115.85412663330078C102.80483040771485,115.25165663330078,102.17996040771484,114.95042663330078,101.56272040771485,114.95042663330078C101.05216040771484,114.95042663330078,100.38920040771484,115.15896663330078,99.58144840771484,115.58378663330078C99.68813240771485,115.86184663330079,99.81006040771484,116.11674663330078,99.93960040771485,116.34845663330078C100.02343040771484,116.49521663330079,100.11487040771485,116.56472663330078,100.20631040771484,116.56472663330078C100.19107040771485,116.56472663330078,100.43492040771484,116.42569663330079,100.93786040771485,116.15535663330078C101.44080040771485,115.88501663330078,101.85991040771485,115.74598663330079,102.21045040771484,115.74598663330079C102.92676040771484,115.74598663330079,103.28491040771485,116.12445663330078,103.28491040771485,116.86595663330078C103.28491040771485,117.24442663330078,103.14774040771485,117.57655663330078,102.87341040771484,117.87779663330078C102.66005040771485,118.11723663330078,102.46954040771485,118.24081663330078,102.30189040771485,118.24081663330078C102.21807040771485,118.24081663330078,101.98184040771484,118.27171663330078,101.60083040771484,118.32578663330078C101.21981040771485,118.37985663330078,100.98359040771484,118.41074663330077,100.88452040771485,118.41074663330077C100.67877040771485,118.41074663330077,100.57970040771484,118.51115663330079,100.57970040771484,118.71970663330077C100.57970040771484,118.78921663330078,100.69401040771484,118.95914663330078,100.92262040771485,119.22176663330077C101.15123040771485,119.48437663330078,101.30363040771485,119.60796663330078,101.38745040771484,119.60796663330078C101.49414040771484,119.60796663330078,102.00470040771485,119.43030663330077,102.92675040771485,119.06728663330078C103.55924040771484,119.26038663330078,103.87166040771484,119.70065663330078,103.87166040771484,120.38808663330079C103.87166040771484,120.85924663330078,103.71164040771484,121.27638663330077,103.39159040771484,121.63168663330077C103.07154040771485,121.98698663330077,102.65242040771484,122.16458663330079,102.14186040771484,122.16458663330079C100.98358040771484,122.16458663330079,100.00056040771484,121.24548663330079,99.19280640771484,119.40714663330078L98.71273040771484,119.70065663330078C99.77195040771484,122.01778663330079,101.01406040771485,123.18418663330078,102.43143040771484,123.18418663330078C103.13250040771484,123.18418663330078,103.71164040771484,122.99108663330078,104.16885040771484,122.59708663330078C104.61845040771485,122.20318663330079,104.84706040771485,121.67798663330078,104.84706040771485,121.01368663330078C104.84706040771485,120.67386663330078,104.75562040771484,120.36491663330078,104.58035040771485,120.08684663330078L104.61846040771485,120.04822663330079C105.09092040771485,120.39580663330078,105.55575040771484,120.57345663330078,106.02821040771484,120.57345663330078C106.50066040771485,120.57345663330078,106.86644040771485,120.50394663330079,107.17125040771484,120.37263663330079L107.17125040771484,123.92568663330078L108.24571040771484,124.55898663330078L108.24571040771484,116.10900663330078L110.71473040771484,116.10900663330078L110.71473040771484,119.00548663330078C110.71473040771484,119.53844663330078,111.04233040771484,120.07139663330078,111.69013040771485,120.59661663330078C112.29213040771484,121.08318663330078,112.80263040771484,121.32268663330078,113.22933040771484,121.32268663330078C113.72473040771484,121.32268663330078,114.21243040771485,121.19138663330078,114.70013040771484,120.92102663330078L114.70013040771484,123.91018663330078L115.77453040771485,124.54358663330078L115.77453040771485,116.09356663330078L122.16033040771484,116.09356663330078L122.16033040771484,118.48798663330078L118.86843040771484,118.48798663330078C118.38833040771485,118.48798663330078,118.06823040771485,118.52660663330079,117.90063040771484,118.60384663330078C117.73293040771485,118.68108663330078,117.64913040771484,118.82011663330078,117.64913040771484,119.01321663330079C117.64913040771484,119.16769663330078,117.84723040771485,119.54616663330079,118.23593040771485,120.13318663330078C118.63213040771484,120.72792663330078,118.90653040771484,121.02148663330078,119.05893040771484,121.02148663330078C119.27223040771484,121.02148663330078,119.37893040771485,120.89785663330078,119.37893040771485,120.64296663330079L119.37893040771485,119.68520663330078C119.37893040771485,119.56161663330079,119.50853040771484,119.50754663330078,119.77523040771484,119.50754663330078L122.15273040771484,119.50754663330078L122.15273040771484,123.91018663330078L123.20433040771485,124.54358663330078L123.20433040771485,116.09355663330078L125.67333040771484,116.09355663330078L125.67333040771484,123.90248663330078L126.76303040771484,124.53578663330077L126.76303040771484,116.08583663330079L129.30823040771486,116.08583663330079L128.77473040771486,115.07399663330078L128.77473040771486,115.09717663330078ZM114.69243040771484,119.68520663330078C113.88473040771484,120.17953663330078,113.22933040771484,120.42670663330078,112.72643040771484,120.42670663330078C112.09393040771485,120.42670663330078,111.78153040771484,119.97099663330079,111.78153040771484,119.05184663330078L111.78153040771484,116.11674663330078L114.70013040771484,116.11674663330078L114.70013040771484,119.68520663330078L114.69243040771484,119.68520663330078Z" fill="#000000" fill-opacity="1" style="mix-blend-mode:passthrough"/></g><g><path d="M126.58799978271485,111.42145538330078L125.43733978271484,112.58777538330078L126.58799978271485,113.75409538330078L127.73865978271485,112.58777538330078L126.58799978271485,111.42145538330078Z" fill="#000000" fill-opacity="1" style="mix-blend-mode:passthrough"/></g><g><path d="M149.38006302490234,118.41861913330078C148.93046302490234,118.41861913330078,148.36656302490235,118.68895913330078,147.69596302490234,119.23735913330079L147.69596302490234,116.11688913330079L152.96916302490234,116.11688913330079L152.43576302490234,115.10504913330078L132.98116302490234,115.10504913330078L133.51458102490236,116.11688913330079L139.25266302490235,116.11688913330079L139.25266302490235,117.80070913330078L136.47887302490236,117.80070913330078C135.99117302490234,117.80070913330078,135.57205302490235,117.93973913330078,135.22914302490236,118.21779913330079C134.80241302490234,118.55765913330077,134.58904302490234,119.03653913330078,134.58904302490234,119.66989913330079C134.58904302490234,120.80531913330078,135.36631302490235,122.36555913330078,136.91323302490235,124.34288913330079L137.48475302490235,123.87172913330078C136.19692302490233,122.27286913330079,135.55682302490234,121.08337913330078,135.55682302490234,120.28008913330078C135.55682302490234,119.29914913330079,136.09024302490235,118.81253913330079,137.16470302490234,118.81253913330079L139.26028302490235,118.81253913330079L139.26028302490235,123.92579913330079L140.34998302490234,124.55915913330078L140.34998302490234,116.10915913330078L146.62906302490234,116.10915913330078L146.62906302490234,119.09832913330078C146.29376302490235,118.62716913330078,145.97376302490235,118.26413913330079,145.67656302490235,118.00152913330078C145.37936302490235,117.73891913330078,144.89166302490236,117.61532913330078,144.23636302490235,117.61532913330078C143.46666302490235,117.61532913330078,142.89517302490233,117.86249913330079,142.52177302490233,118.35682913330078C142.27030302490235,118.70440913330079,142.14075302490235,119.06742913330078,142.14075302490235,119.44590913330079C142.14075302490235,120.14878913330078,142.39222302490234,120.75125913330078,142.89517302490233,121.26875913330078C143.39806302490234,121.78625913330077,143.99246302490235,122.04115913330078,144.67836302490235,122.04115913330078C145.15076302490235,122.04115913330078,145.79846302490233,121.77854913330079,146.62906302490234,121.24558913330078L146.62906302490234,123.92579913330079L147.70356302490234,124.55915913330078L147.70356302490234,120.51953913330078C148.53416302490234,119.79348913330078,149.18956302490236,119.43045913330079,149.65436302490235,119.43045913330079C149.90586302490235,119.43045913330079,150.11916302490235,119.51541913330078,150.28686302490235,119.67762913330078C150.46206302490233,119.83982913330078,150.54596302490233,120.05609913330078,150.54596302490233,120.31870913330079C150.54596302490233,121.02931913330079,150.19536302490235,121.87122913330079,149.49436302490236,122.83671913330078L150.40876302490236,123.67090913330078C151.04126302490235,122.68224913330079,151.35366302490235,121.86350913330078,151.35366302490235,121.22241913330078C151.35366302490235,120.31871913330077,151.10986302490235,119.59266913330077,150.62216302490233,119.04426913330079C150.22586302490234,118.61944913330078,149.81436302490235,118.41089913330079,149.38766302490234,118.41089913330079L149.38006302490234,118.41861913330078ZM144.09916302490234,121.13744913330078C143.76386302490235,121.13744913330078,143.48956302490234,121.03703913330078,143.26856302490233,120.83621913330079C143.04756302490233,120.63538913330078,142.94090302490235,120.37277913330078,142.94090302490235,120.04837913330078C142.94090302490235,119.61583913330078,143.10096302490234,119.26053913330078,143.42096302490233,118.98246913330078C143.70296302490235,118.75074913330079,144.03826302490234,118.63489913330078,144.41926302490234,118.63489913330078C144.91456302490235,118.63489913330078,145.32606302490234,118.73530913330077,145.63846302490234,118.92840913330078C145.95096302490234,119.12150913330078,146.27856302490235,119.45363913330078,146.62916302490234,119.92479913330078C145.58516302490233,120.73580913330078,144.73926302490236,121.13745913330078,144.09916302490234,121.13744913330078Z" fill="#000000" fill-opacity="1" style="mix-blend-mode:passthrough"/></g></g><g><g><path d="M77.86351983996582,134.13832502197266C77.63490883996582,133.78302502197266,77.45964583996582,133.37366502197267,77.33771783996582,132.90249502197267C77.21579073996583,132.43906502197265,77.15483283996582,131.93700502197265,77.15483283996582,131.39633502197265C77.15483283996582,130.85565502197267,77.21579653996582,130.35360502197267,77.33771783996582,129.88243502197267C77.45964583996582,129.41127802197266,77.63490883996582,129.00191002197266,77.86351983996582,128.65433502197266L78.54934283996582,128.65433502197266C78.31312283996581,129.08687402197265,78.14547283996582,129.51941902197265,78.03116783996582,129.96740502197267C77.92448383996582,130.41539502197264,77.86351983996582,130.88655502197267,77.86351983996582,131.39633502197265C77.86351983996582,131.90611502197265,77.91686183996582,132.37727502197265,78.03116783996582,132.82526502197265C78.13785083996582,133.27325502197266,78.31312283996581,133.71351502197265,78.54934283996582,134.13832502197266L77.86351983996582,134.13832502197266Z" fill="#DB2729" fill-opacity="1" style="mix-blend-mode:passthrough"/></g><g><path d="M80.47733123840332,133.06488189697265C80.16490123840332,133.06488189697265,79.86009323840332,133.01854189697266,79.57051823840332,132.92585189697266C79.28094923840332,132.83316189697265,79.05233823840332,132.71730189697266,78.88469123840332,132.57055189697266L79.14377823840331,131.97581189697266C79.30380423840332,132.10711189697267,79.50193323840332,132.21525189697266,79.74578223840332,132.30021189697266C79.98201123840332,132.38517189697265,80.22586123840333,132.43152189697267,80.47733123840332,132.43152189697267C80.69070123840332,132.43152189697267,80.85834123840333,132.40834189697264,80.98789123840332,132.36200189697266C81.11743123840333,132.31566189697264,81.21650123840332,132.25387189697267,81.27746123840332,132.16890189697267C81.33842123840333,132.09167189697266,81.36890123840332,131.99898189697265,81.36890123840332,131.89857189697267C81.36890123840332,131.77498189697266,81.32318123840332,131.67457189697265,81.23936123840332,131.59733189697266C81.14791123840332,131.52010189697265,81.03361123840332,131.45830189697264,80.89645123840332,131.41968189697266C80.75928123840332,131.37334189697265,80.59926123840332,131.33472189697267,80.43161123840332,131.29610189697266C80.26396123840333,131.25747189697265,80.08870123840332,131.21113189697266,79.92105123840332,131.15706189697266C79.75340423840332,131.10300189697264,79.59337823840332,131.03348189697266,79.45621323840332,130.94852189697266C79.31904723840331,130.86356189697267,79.20474223840333,130.75542189697265,79.11330223840332,130.60866189697265C79.02185623840332,130.46963189697266,78.98375873840332,130.29198189697266,78.98375873840332,130.06799189697264C78.98375873840332,129.84400189697266,79.04472223840332,129.64317289697266,79.15902823840332,129.45779989697266C79.27333323840332,129.27242689697266,79.45621923840332,129.12566989697265,79.69244623840332,129.00980989697265C79.93629123840331,128.90167489697265,80.24111123840332,128.83988189697266,80.60688123840332,128.83988189697266C80.85073123840333,128.83988189697266,81.08695123840332,128.87077839697267,81.33080123840332,128.93257139697266C81.56703123840332,128.99436389697266,81.78040123840331,129.08704789697265,81.95567123840333,129.20290789697265L81.71944123840332,129.79764989697264C81.53655123840332,129.68951489697267,81.35366123840332,129.60455089697265,81.15554123840332,129.55820889697264C80.96503123840333,129.50414189697267,80.77452123840332,129.48097089697265,80.59926123840332,129.48097089697265C80.39351123840332,129.48097089697265,80.22586123840333,129.50414189697267,80.09631123840332,129.55820889697264C79.96677123840333,129.61227689697265,79.87532523840332,129.67406989697267,79.81436223840332,129.75903289697266C79.75339823840332,129.84400189697266,79.72291623840331,129.93668189697266,79.72291623840331,130.03709189697267C79.72291623840331,130.16068189697265,79.76863623840332,130.26109189697266,79.85245923840333,130.33833189697265C79.93628123840332,130.41557189697266,80.05059123840331,130.47736189697267,80.19537123840333,130.51598189697265C80.33253123840332,130.56232189697266,80.49256123840333,130.60094189697264,80.66783123840332,130.63957189697265C80.84310123840332,130.67819189697266,81.01074123840333,130.72453189697265,81.18601123840332,130.77860189697265C81.35366123840332,130.83267189697267,81.51368123840332,130.89446189697264,81.65085123840332,130.97942189697267C81.78801123840331,131.06439189697267,81.90232123840332,131.17252189697265,81.99376123840332,131.31155189697265C82.07758123840333,131.45058189697266,82.12330123840331,131.62824189697267,82.12330123840331,131.84451189697265C82.12330123840331,132.06078189697266,82.06234123840332,132.26160189697265,81.94803123840332,132.44697189697266C81.83373123840332,132.63235189697266,81.65084123840332,132.77910189697266,81.40699123840332,132.89496189697266C81.16314123840333,133.00310189697265,80.85833123840332,133.06489189697265,80.48494123840332,133.06489189697265L80.47733123840332,133.06488189697265Z" fill="#DB2729" fill-opacity="1" style="mix-blend-mode:passthrough"/></g><g><path d="M83.15226361340332,129.36494814697267C83.01509861340332,129.36494814697267,82.90841461340332,129.31860714697265,82.81696961340332,129.23364314697267C82.73314551340331,129.14867914697265,82.68742561340332,129.04054414697265,82.68742561340332,128.92468414697265C82.68742561340332,128.80882314697266,82.73314551340331,128.69296314697266,82.81696961340332,128.60799914697265C82.90079261340333,128.52303524697265,83.01509861340332,128.48441314697266,83.15226361340332,128.48441314697266C83.28942961340331,128.48441314697266,83.39611261340332,128.52303524697265,83.48755861340332,128.60799914697265C83.57138161340332,128.68523714697267,83.61710161340332,128.78565214697267,83.61710161340332,128.90923214697267C83.61710161340332,129.04053814697266,83.57138161340332,129.14867314697267,83.48755861340332,129.23363714697265C83.40373461340332,129.31860114697267,83.28942961340331,129.36494314697265,83.15226361340332,129.36494814697267ZM82.78648731340331,133.00292314697265L82.78648731340331,129.87472314697266L83.51041261340332,129.87472314697266L83.51041261340332,133.00292314697265L82.78648731340331,133.00292314697265Z" fill="#DB2729" fill-opacity="1" style="mix-blend-mode:passthrough"/></g><g><path d="M87.48816951965333,131.20915002197265L87.48816951965333,133.00111002197266L86.76423951965332,133.00111002197266L86.76423951965332,131.30184002197265C86.76423951965332,131.02378002197267,86.70327951965332,130.81523402197266,86.57373951965332,130.68392202197265C86.44418951965332,130.54489102197266,86.26129951965332,130.48309802197267,86.03269951965332,130.48309802197267C85.86504951965333,130.48309802197267,85.71264951965333,130.52172002197267,85.58309951965332,130.59123302197267C85.45355951965333,130.66074502197264,85.35449051965333,130.76888602197266,85.27828851965332,130.90792002197264C85.20970851965332,131.04695002197266,85.17160451965331,131.22460002197266,85.17160451965331,131.43315002197266L85.17160451965331,133.01656002197265L84.44767951965332,133.01656002197265L84.44767951965332,129.88835652197267L85.13350651965332,129.88835652197267L85.13350651965332,130.29772502197267C85.22495251965331,130.18186402197264,85.34687451965333,130.08918102197265,85.48403951965332,130.01966202197266C85.68978951965332,129.91152742197266,85.92601951965332,129.85746002197266,86.20034951965332,129.85746002197266C86.44419951965332,129.85746002197266,86.66518951965332,129.90380182197265,86.86331951965332,130.00421702197266C87.06144951965332,130.10462602197265,87.21384951965332,130.25138302197266,87.32052951965332,130.45220702197267C87.43483951965332,130.65303102197265,87.48817951965331,130.90792002197264,87.48817951965331,131.22460002197266L87.48816951965333,131.20915002197265Z" fill="#DB2729" fill-opacity="1" style="mix-blend-mode:passthrough"/></g><g><path d="M89.82757908996582,133.03945252197266C89.50752908996581,133.03945252197266,89.21794908996581,132.96994252197265,88.96648808996582,132.83091252197266C88.71501708996583,132.69188252197264,88.51689408996582,132.49878252197266,88.37210608996583,132.25934252197266C88.22731888996582,132.01990252197265,88.15873908996582,131.74184252197264,88.15873908996582,131.43288252197266C88.15873908996582,131.12392252197264,88.22731888996582,130.84586252197266,88.37210608996583,130.60641752197265C88.51689408996582,130.36697652197265,88.71501708996583,130.18159752197266,88.96648808996582,130.04256652197265C89.21795908996582,129.90353522197265,89.50752908996581,129.83402252197266,89.82757908996582,129.83402252197266C90.12476908996582,129.83402252197266,90.39147908996583,129.89581552197265,90.62008908996582,130.01939552197265C90.84869908996582,130.14298152197264,91.02396908996582,130.32062952197265,91.14588908996582,130.56006952197265L90.58960908996582,130.88447252197267C90.49815908996582,130.73771652197266,90.38385908996582,130.62958252197265,90.25430908996582,130.56006952197265C90.12476908996582,130.49055652197265,89.97997908996582,130.45193452197265,89.82757908996582,130.45193452197265C89.65230908996583,130.45193452197265,89.49227908996582,130.49055652197265,89.34749908996582,130.56779552197267C89.20271908996583,130.64503352197266,89.09603208996582,130.76089352197266,89.01220808996582,130.90765252197266C88.92838408996582,131.05440252197266,88.89028008996581,131.23205252197266,88.89028008996581,131.43288252197266C88.89028008996581,131.63370252197265,88.92838408996582,131.81135252197265,89.01220808996582,131.95811252197265C89.09603208996582,132.10486252197265,89.20271908996583,132.21300252197267,89.34749908996582,132.29796252197266C89.49228908996582,132.37520252197265,89.65231908996581,132.41382252197266,89.82757908996582,132.41382252197266C89.97997908996582,132.41382252197266,90.12476908996582,132.37520252197265,90.25430908996582,132.30569252197265C90.38385908996582,132.23617252197266,90.49815908996582,132.12803252197267,90.58960908996582,131.98128252197264L91.14588908996582,132.30569252197265C91.02396908996582,132.53741252197267,90.84869908996582,132.72278252197265,90.62008908996582,132.84636252197265C90.39147908996583,132.96995252197266,90.12476908996582,133.03946252197267,89.82757908996582,133.03945252197266Z" fill="#DB2729" fill-opacity="1" style="mix-blend-mode:passthrough"/></g><g><path d="M94.42260842590332,130.59869752197267C94.28544842590333,130.35925752197267,94.10255842590333,130.16615852197265,93.86632842590332,130.03484652197267C93.63009842590333,129.90354112197267,93.36338842590332,129.83402252197266,93.06619842590332,129.83402252197266C92.76900842590332,129.83402252197266,92.48704842590332,129.90353522197265,92.24320342590332,130.03484652197267C91.99935442590332,130.17387852197265,91.81646942590332,130.35925152197265,91.67930342590331,130.59869752197267C91.54213822590332,130.83814252197266,91.47355842590332,131.11620252197267,91.47355842590332,131.42516252197265C91.47355842590332,131.73412252197267,91.54213822590332,132.01218252197265,91.68692542590333,132.25162252197265C91.82409142590332,132.49106252197265,92.02222042590331,132.68416252197267,92.28130742590332,132.82319252197266C92.54039842590332,132.96222252197265,92.83758842590332,133.03173252197266,93.18049842590332,133.03173252197266C93.44720842590333,133.03173252197266,93.69105842590332,132.98539252197264,93.89680842590332,132.90043252197265C94.11017842590331,132.81546252197265,94.27782842590332,132.68416252197267,94.42260842590332,132.52196252197265L94.03397842590331,132.07397252197265C93.92728842590333,132.18983252197265,93.80536842590332,132.27479252197264,93.66058842590331,132.32886252197267C93.52341842590332,132.38292252197266,93.36338842590332,132.41382252197266,93.19574842590332,132.41382252197266C92.99761842590333,132.41382252197266,92.81472842590333,132.37520252197265,92.66232842590333,132.29796252197266C92.50992842590333,132.22072252197265,92.38799642590332,132.10486252197265,92.30417342590331,131.96583252197266C92.25083142590331,131.87314252197265,92.21272742590332,131.77273252197264,92.19748942590331,131.66460252197265L94.62073842590333,131.66460252197265Q94.62073842590333,131.59508252197264,94.62836842590332,131.55646252197266C94.62836842590332,131.51784252197265,94.62836842590332,131.47922252197264,94.62836842590332,131.44833252197265C94.62836842590332,131.12392252197264,94.55978842590332,130.83814252197266,94.42261842590332,130.59097152197265L94.42260842590332,130.59869752197267ZM92.18986742590332,131.18572252197265C92.20510542590333,131.06986252197265,92.24320942590332,130.96172252197266,92.28892942590332,130.86903252197266C92.36513142590331,130.73000352197266,92.46419842590332,130.62186852197266,92.60136842590332,130.54463052197266C92.73090842590332,130.46739152197264,92.89092842590333,130.42876952197267,93.06619842590332,130.42876952197267C93.24146842590332,130.42876952197267,93.39387842590332,130.46739152197264,93.52341842590332,130.54463052197266C93.65295842590332,130.62186852197266,93.75964842590332,130.73000352197266,93.83584842590332,130.86903252197266C93.88919842590332,130.96944252197267,93.92729842590332,131.06986252197265,93.93491842590332,131.19344252197266L92.18224542590332,131.19344252197266L92.18986742590332,131.18572252197265Z" fill="#DB2729" fill-opacity="1" style="mix-blend-mode:passthrough"/></g><g><path d="M96.75432014465332,131.68054264697267L96.75432014465332,131.07035064697266L98.33934014465332,131.07035064697266L98.33934014465332,131.68054264697267L96.75432014465332,131.68054264697267Z" fill="#DB2729" fill-opacity="1" style="mix-blend-mode:passthrough"/></g><g><path d="M103.43733717590332,132.36022377197267L103.43733717590332,133.00131377197266L100.45780217590332,133.00131377197266L100.45780217590332,132.49153377197266L102.06568717590332,130.94674377197265C102.20284717590332,130.81543377197266,102.30190717590332,130.70730377197265,102.36287717590332,130.60688377197266C102.43145717590332,130.50647377197265,102.46955717590332,130.42151377197266,102.49241717590333,130.33655377197266C102.51527717590332,130.25158377197266,102.52289717590332,130.17434377197264,102.52289717590332,130.09711377197266C102.52289717590332,129.91173377197265,102.46193717590332,129.76497977197266,102.33239717590332,129.66457077197265C102.20284717590332,129.56416177197266,102.01995717590331,129.51009377197266,101.76849717590332,129.51009377197266C101.57036717590331,129.51009377197266,101.39509717590332,129.54871577197267,101.23507517590332,129.61822877197267C101.07505017590331,129.68774177197267,100.93788417590332,129.79588177197266,100.82357917590332,129.94263377197265L100.29777717590332,129.53326477197265C100.45780217590332,129.31699477197265,100.67117017590331,129.15479277197267,100.93787917590332,129.03120677197265C101.20458817590333,128.91534677197265,101.50177717590331,128.85355377197266,101.83707717590332,128.85355377197266C102.12664717590332,128.85355377197266,102.38573717590332,128.89989557197265,102.59910717590333,129.00031077197266C102.82008717590332,129.09299977197264,102.98773717590332,129.23203177197266,103.10204717590332,129.40967877197266C103.21634717590332,129.58733177197266,103.27731717590332,129.79587577197265,103.27731717590332,130.03531377197265C103.27731717590332,130.16662377197267,103.26207717590331,130.29792377197265,103.22396717590333,130.42924377197266C103.18586717590333,130.56054377197265,103.12490717590332,130.69957377197267,103.02584717590332,130.83860377197266C102.92677717590333,130.98536377197266,102.78961717590332,131.14756377197267,102.60672717590332,131.32521377197264L101.52464717590333,132.36794377197265L103.42971717590332,132.36794377197265L103.43733717590332,132.36022377197267Z" fill="#DB2729" fill-opacity="1" style="mix-blend-mode:passthrough"/></g><g><path d="M105.55595385559081,133.06302127197264C105.23590385559082,133.06302127197264,104.94633385559082,132.97806127197265,104.69486685559082,132.81585127197266C104.43577985559082,132.65365127197265,104.23765085559081,132.41421127197265,104.09286285559082,132.09753127197266C103.94807555559082,131.78084127197266,103.87187385559082,131.40237127197267,103.87187385559082,130.95438127197266C103.87187385559082,130.50639127197266,103.94807555559082,130.12792127197267,104.09286285559082,129.81123427197267C104.23765085559081,129.49455027197266,104.44339585559082,129.25510927197266,104.69486685559082,129.09290727197265C104.95395385559083,128.93070517197265,105.23590385559082,128.84574127197266,105.55595385559081,128.84574127197266C105.87600385559082,128.84574127197266,106.16558385559082,128.93070517197265,106.42467385559083,129.09290727197265C106.67614385559082,129.25510927197266,106.88188385559081,129.49455027197266,107.02667385559081,129.81123427197267C107.17146385559082,130.12792127197267,107.24766385559082,130.50639127197266,107.24766385559082,130.95438127197266C107.24766385559082,131.40237127197267,107.17146385559082,131.78857127197264,107.02667385559081,132.09753127197266C106.88188385559081,132.41421127197265,106.67614385559082,132.65365127197265,106.42467385559083,132.81585127197266C106.17320385559083,132.97806127197265,105.88363385559082,133.06302127197264,105.55595385559081,133.06302127197264ZM105.55595385559081,132.39876127197266C105.74646385559082,132.39876127197266,105.90649385559082,132.34469127197266,106.04365385559082,132.24428127197265C106.18082385559082,132.14387127197264,106.28750385559081,131.98167127197266,106.37132385559082,131.76540127197265C106.44753385559082,131.54913127197267,106.49325385559082,131.27879127197266,106.49325385559082,130.95438127197266C106.49325385559082,130.62997127197266,106.45515385559082,130.35191127197265,106.37132385559082,130.13564127197264C106.29512385559082,129.91937127197266,106.18082385559082,129.76489227197266,106.04365385559082,129.66448327197264C105.90649385559082,129.56407427197266,105.73884385559082,129.51000727197265,105.55595385559081,129.51000727197265C105.37307385559082,129.51000727197265,105.21304385559083,129.56407427197266,105.07588385559082,129.66448327197264C104.93871385559082,129.76489227197266,104.82440985559082,129.92709127197264,104.74820885559082,130.13564127197264C104.67200685559082,130.35191127197265,104.62628085559082,130.62225127197266,104.62628085559082,130.95438127197266C104.62628085559082,131.28651127197264,104.66438485559082,131.55685127197265,104.74820885559082,131.76540127197265C104.82440985559082,131.98167127197266,104.93871385559082,132.13615127197266,105.07588385559082,132.24428127197265C105.21304385559083,132.34469127197266,105.38069385559082,132.39876127197266,105.55595385559081,132.39876127197266Z" fill="#DB2729" fill-opacity="1" style="mix-blend-mode:passthrough"/></g><g><path d="M109.15248334777831,128.89847564697266L109.15248334777831,132.99988564697264L108.39807834777832,132.99988564697264L108.39807834777832,129.53956464697265L107.54460334777832,129.53956464697265L107.54460334777832,128.89847564697266L109.15248334777831,128.89847564697266Z" fill="#DB2729" fill-opacity="1" style="mix-blend-mode:passthrough"/></g><g><path d="M112.85617866027832,129.77261227197266C112.71901866027832,129.47137927197267,112.52088866027832,129.23965827197264,112.26179866027832,129.08518127197266C112.00271866027832,128.93070517197265,111.69027866027832,128.84574127197266,111.31688866027832,128.84574127197266C111.04255866027832,128.84574127197266,110.79108466027832,128.89980867197266,110.57009566027833,129.00794327197266C110.34148466027833,129.11607827197267,110.16622166027832,129.27055527197265,110.03667766027831,129.46365327197265C109.90713426027833,129.66447727197266,109.83854866027832,129.89619127197267,109.83854866027832,130.16653127197264C109.83854866027832,130.42143127197266,109.89951236027832,130.64542127197265,110.02143366027832,130.83079127197266C110.14336166027832,131.02389127197264,110.31100266027832,131.16292127197266,110.52437566027832,131.27106127197266C110.73774366027833,131.37147127197267,110.96635866027832,131.42554127197266,111.23305866027832,131.42554127197266C111.43118866027832,131.42554127197266,111.61407866027832,131.39464127197266,111.78172866027832,131.34057127197266C111.94936866027832,131.28650127197267,112.09415866027832,131.20154127197264,112.21607866027833,131.10113127197266C112.25418866027832,131.07023127197266,112.28465866027832,131.03934127197266,112.31513866027832,131.00072127197265C112.31513866027832,131.46416127197264,112.20083866027832,131.81946127197267,111.97984866027832,132.05890127197264C111.75885866027832,132.29835127197265,111.45404866027832,132.41421127197265,111.07302866027833,132.41421127197265C110.93586866027832,132.41421127197265,110.79870066027831,132.39876127197266,110.66915766027832,132.36786127197266C110.53961366027832,132.33697127197266,110.41768666027832,132.29063127197264,110.30338066027832,132.21339127197265L110.02904966027832,132.78496127197266C110.16621566027833,132.87765127197267,110.32624066027832,132.93943127197267,110.50912666027833,132.98578127197266C110.69201166027833,133.03212127197264,110.89013866027832,133.04757127197266,111.09588866027832,133.04757127197266C111.49213866027831,133.04757127197266,111.83505866027832,132.96261127197266,112.13224866027832,132.79268127197267C112.42943866027832,132.62276127197265,112.65804866027833,132.37559127197267,112.82569866027832,132.05118127197267C112.99333866027833,131.72678127197267,113.07716866027832,131.33286127197266,113.07716866027832,130.86170127197266C113.07716866027832,130.42143127197266,113.00858866027832,130.05068127197265,112.87141866027832,129.74944727197266L112.85617866027832,129.77261227197266ZM112.09415866027832,130.49094127197264C112.02557866027831,130.59907127197266,111.92650866027832,130.68404127197266,111.80458866027833,130.74583127197266C111.68265866027832,130.80762127197266,111.53787866027832,130.83852127197267,111.37784866027832,130.83852127197267C111.13399866027832,130.83852127197267,110.93586866027832,130.77673127197266,110.79109066027831,130.65315127197266C110.64630966027832,130.52957127197266,110.57010166027833,130.35964127197266,110.57010166027833,130.14336127197265C110.57010166027833,129.99661127197265,110.60058366027832,129.87303127197265,110.66916366027831,129.77261227197266C110.73774366027833,129.67220327197265,110.82918866027832,129.58723927197266,110.95111866027833,129.53317227197266C111.07303866027831,129.47910427197266,111.21019866027832,129.44820827197265,111.36260866027833,129.44820827197265C111.54549866027833,129.44820827197265,111.69790866027832,129.47910427197266,111.81982866027832,129.54089727197265C111.94175866027832,129.60269027197265,112.04081866027832,129.68765427197266,112.10177866027831,129.78806327197265C112.17035866027832,129.88847127197266,112.20083866027832,130.00433127197266,112.20083866027832,130.13564127197264C112.20083866027832,130.26694127197266,112.16273866027832,130.39053127197266,112.09415866027832,130.49866127197265L112.09415866027832,130.49094127197264Z" fill="#DB2729" fill-opacity="1" style="mix-blend-mode:passthrough"/></g><g><path d="M114.13631413684082,134.13832502197266L113.45048713684082,134.13832502197266C113.68671413684082,133.70579502197265,113.86198313684082,133.27324502197266,113.97628913684082,132.82526502197265C114.09059413684082,132.37727502197265,114.14393613684082,131.90611502197265,114.14393613684082,131.39633502197265C114.14393613684082,130.88655502197267,114.09059413684082,130.41539502197264,113.97628913684082,129.96740502197267C113.86960513684082,129.51941302197267,113.69433613684082,129.07914902197265,113.45048713684082,128.65433502197266L114.13631413684082,128.65433502197266C114.36492513684082,129.00191002197266,114.54018713684081,129.41128402197265,114.66211713684082,129.88243502197267C114.78404713684083,130.35360502197267,114.83737713684081,130.85565502197267,114.83737713684081,131.39633502197265C114.83737713684081,131.93700502197265,114.77641713684082,132.43906502197265,114.66211713684082,132.90249502197267C114.54018713684081,133.36593502197266,114.36492513684082,133.78302502197266,114.13631413684082,134.13832502197266Z" fill="#DB2729" fill-opacity="1" style="mix-blend-mode:passthrough"/></g></g></g></g><g><g><path d="M115.10417289611816,63.361786625823974C113.63346289611816,63.361786625823974,112.42945289611816,62.149126625823975,112.42945289611816,60.65068662582397C112.42945289611816,59.152236625823974,113.62584289611816,57.939576625823975,115.10417289611816,57.939576625823975C116.58251289611816,57.939576625823975,117.77889289611817,59.152236625823974,117.77889289611817,60.65068662582397C117.77889289611817,62.149126625823975,116.58250289611817,63.361786625823974,115.10417289611816,63.361786625823974ZM115.10417289611816,58.140399625823974C113.74014289611816,58.140399625823974,112.62758189611816,59.26809662582397,112.62758189611816,60.65068662582397C112.62758189611816,62.03326662582398,113.74014289611816,63.160966625823974,115.10417289611816,63.160966625823974C116.46821289611816,63.160966625823974,117.58077289611816,62.03326662582398,117.58077289611816,60.65068662582397C117.58077289611816,59.26809662582397,116.46820289611816,58.140399625823974,115.10417289611816,58.140399625823974Z" fill="#000000" fill-opacity="1" style="mix-blend-mode:passthrough"/></g><g><path d="M115.69077527893066,62.18753475082397L114.89826627893066,60.92853475082397L114.47153127893067,60.92853475082397L114.47153127893067,62.18753475082397L114.08289527893066,62.18753475082397L114.08289527893066,59.113404750823975L115.08115727893066,59.113404750823975C115.42406527893067,59.113404750823975,115.68315527893067,59.198368150823974,115.85842527893067,59.360570750823975C116.03369527893067,59.530497750823976,116.11751527893067,59.746768750823975,116.11751527893067,60.02483075082397C116.11751527893067,60.27199475082397,116.04893527893067,60.480544750823974,115.91176527893066,60.62729475082398C115.77460527893066,60.78177475082398,115.57647527893066,60.874464750823975,115.30976527893067,60.91308475082398L116.14037527893066,62.17981475082397L115.69839527893066,62.17981475082397L115.69077527893066,62.18753475082397ZM114.47152027893067,60.64274475082397L115.04304227893067,60.64274475082397C115.48501527893066,60.64274475082397,115.70600527893066,60.44192475082397,115.70600527893066,60.04800175082397C115.70600527893066,59.65408075082397,115.48501527893066,59.45325875082398,115.04304227893067,59.45325875082398L114.47152027893067,59.45325875082398L114.47152027893067,60.64274475082397Z" fill="#000000" fill-opacity="1" style="mix-blend-mode:passthrough"/></g></g></g></g></g></g></svg>